<svg viewBox="0 0 1455 1540" fill="none" preserveAspectRatio="xMidYMax meet">
<g clip-path="url(#clip0_83_3)">
<path d="M1455 730L790 730L790 954L790 1290L1455 1290L1455 730Z" fill="black"/>
<path d="M677.999 5.92726e-05L727.499 6.36874e-05M778.999 6.81023e-05L727.499 6.36874e-05M727.499 6.36874e-05L727.499 452.5M727.499 452.5L1455 452.5M727.499 452.5L277.001 452.5M-6.72038e-06 452.5L277.001 452.5M1455 452.5L1455 1290M1455 452.5L1455 730M277.001 452.5L277.001 730M277.001 730L-6.38186e-05 730M277.001 730C578.719 730 615.226 730 790 730M790 954L-6.72037e-06 954M790 954L790 730M790 954L790 1290L1455 1290M1455 730C1427.26 730 1100.88 730 790 730M1455 730L1455 1290M1455 730L790 730" stroke="#DF1A10"/>
<circle cx="138.5" cy="591.5" r="137.5" fill="black"/>
<path d="M277.5 453H662.819C850.708 466.507 847.405 718.774 662.819 729.5H277.5C326.46 617.693 321.181 556.436 277.5 453Z" fill="black"/>
</g>
<defs>
<clipPath id="clip0_83_3">
<rect width="1455" height="1540" fill="white"/>
</clipPath>
</defs>
</svg>
