<svg width="602" height="213" viewBox="0 0 602 213" fill="none" xmlns="http://www.w3.org/2000/svg">
<path d="M94.3557 65.62C94.3557 77.18 88.9157 86.02 77.3557 91.29C93.1657 96.56 100.476 106.42 100.476 120.02C100.476 140.76 83.3057 153 44.5457 153H8.6757C5.1057 153 5.1057 150.45 6.1257 148.41C8.1657 144.33 10.7157 140.25 10.7157 134.47V52.53C10.7157 46.75 8.1657 42.67 6.1257 38.59C5.1057 36.55 5.1057 34 8.6757 34H42.8457C78.2057 34 94.3557 45.73 94.3557 65.62ZM31.7957 87.04H46.5857C64.2657 87.04 72.2557 77.86 72.2557 65.62C72.2557 53.38 64.2657 44.2 46.5857 44.2H31.7957V87.04ZM31.7957 142.8H48.2857C69.3657 142.8 78.3757 132.94 78.3757 120.02C78.3757 107.1 69.3657 97.24 48.2857 97.24H31.7957V142.8ZM115.97 129.54V86.53C115.97 80.75 113.42 76.67 111.38 72.59C110.36 70.55 110.36 68 113.93 68H139.09C142.66 68 142.66 70.55 141.64 72.59C139.6 76.67 137.05 80.75 137.05 86.53V125.29C137.05 132.43 139.09 142.12 148.27 142.12C159.66 142.12 164.93 128.01 164.93 120.02V86.53C164.93 80.75 162.38 76.67 160.34 72.59C159.32 70.55 159.32 68 162.89 68H188.05C191.62 68 191.62 70.55 190.6 72.59C188.56 76.67 186.01 80.75 186.01 86.53V138.04C186.01 143.82 186.86 147.56 189.41 149.09C191.45 150.45 191.28 154.36 186.52 154.36C175.64 154.36 167.82 147.56 165.61 137.7C160.17 147.9 151.67 154.36 139.43 154.36C124.13 154.36 115.97 143.65 115.97 129.54ZM237.72 146.37C246.9 146.37 253.02 141.27 253.02 134.13C253.02 110.84 208.65 114.07 208.65 89.76C208.65 73.44 224.29 66.64 241.12 66.64C261.69 66.64 267.64 75.65 267.64 82.79C267.64 90.1 258.97 95.03 251.49 95.03C248.43 95.03 248.26 92.99 249.11 90.78C252.34 82.96 249.11 73.95 239.93 73.95C232.96 73.95 228.88 79.05 228.88 85.17C228.88 105.4 274.1 100.13 274.1 129.71C274.1 148.41 257.44 154.36 235.85 154.36C215.62 154.36 199.81 148.58 199.81 134.13C199.81 125.63 207.97 116.96 221.57 116.96C225.99 116.96 225.99 120.7 224.12 122.91C216.13 133.11 222.59 146.37 237.72 146.37ZM308.876 53.21V82.11C314.316 72.59 322.646 66.64 334.376 66.64C349.676 66.64 357.836 77.35 357.836 91.46V134.47C357.836 140.25 360.386 144.33 362.426 148.41C363.446 150.45 363.446 153 359.876 153H334.716C331.146 153 331.146 150.45 332.166 148.41C334.206 144.33 336.756 140.25 336.756 134.47V95.71C336.756 88.57 334.716 78.88 325.536 78.88C314.146 78.88 308.876 92.99 308.876 100.98V134.47C308.876 140.25 311.426 144.33 313.466 148.41C314.486 150.45 314.486 153 310.916 153H285.756C282.186 153 282.186 150.45 283.206 148.41C285.246 144.33 287.796 140.25 287.796 134.47V46.92C287.796 41.14 286.946 37.4 284.396 35.87C282.356 34.51 282.526 30.6 287.286 30.6C300.206 30.6 308.876 40.29 308.876 53.21ZM376.736 44.71C376.736 37.4 381.836 32.47 389.146 32.47C396.456 32.47 401.556 37.4 401.556 44.71C401.556 52.19 396.456 57.12 389.146 57.12C381.836 57.12 376.736 52.19 376.736 44.71ZM399.686 89.25V134.47C399.686 140.25 402.236 144.33 404.276 148.41C405.296 150.45 405.296 153 401.726 153H376.566C372.996 153 372.996 150.45 374.016 148.41C376.056 144.33 378.606 140.25 378.606 134.47V82.96C378.606 77.18 377.756 73.44 375.206 71.91C373.166 70.55 373.336 66.64 378.096 66.64C391.016 66.64 399.686 76.33 399.686 89.25ZM475.692 72.42V46.92C475.692 41.14 474.842 37.4 472.292 35.87C470.252 34.51 470.422 30.6 475.182 30.6C488.102 30.6 496.772 40.29 496.772 53.21V134.47C496.772 140.25 499.322 144.33 501.362 148.41C502.382 150.45 502.382 153 498.812 153H490.992C483.002 153 477.392 148.41 476.032 141.1C470.592 149.43 462.432 154.36 451.892 154.36C429.792 154.36 415.172 135.15 415.172 110.67C415.172 85.85 429.792 66.64 455.972 66.64C463.792 66.64 470.422 68.51 475.692 72.42ZM455.972 146.37C466.682 146.37 475.692 132.77 475.692 111.69V109.48C475.692 86.02 466.002 74.97 455.972 74.97C443.902 74.97 437.272 90.44 437.272 110.67C437.272 130.9 443.902 146.37 455.972 146.37ZM554.451 66.64C581.991 66.64 596.611 85.85 596.611 110.67C596.611 135.15 581.991 154.36 554.451 154.36C526.911 154.36 512.291 135.15 512.291 110.67C512.291 85.85 526.911 66.64 554.451 66.64ZM534.391 110.67C534.391 130.9 541.021 146.37 554.451 146.37C567.881 146.37 574.511 130.9 574.511 110.67C574.511 90.44 567.881 74.97 554.451 74.97C541.021 74.97 534.391 90.44 534.391 110.67Z" fill="#DF1A10"/>
<path d="M580.064 45.6667C576.064 43.6667 529.064 41.6667 527.064 44.1667C525.064 46.6667 526.064 54.1667 528.564 54.6667C531.063 55.1666 566.564 52.1667 579.064 53.6667C581.564 53.6667 584.064 47.6666 580.064 45.6667Z" fill="#DF1A10"/>
</svg>
