<svg width="178" height="57" viewBox="0 0 178 57" fill="none" xmlns="http://www.w3.org/2000/svg">
<path d="M41.7 4.5L46.68 0.839998C49.74 3.12 53.34 6.54 54.96 9.06L49.68 13.14C48.18 10.68 44.7 7.02 41.7 4.5ZM1.44 13.98H55.44V20.64H1.44V13.98ZM19.98 29.04H31.98V35.4H19.98V29.04ZM6.06 2.76H28.86V9.18H6.06V2.76ZM0.36 48.6C8.7 47.46 21.66 45.18 33.42 43.08L33.96 49.74C22.86 51.9 10.8 54.12 2.1 55.68L0.36 48.6ZM16.44 22.32H23.34V49.56H16.44V22.32ZM5.28 26.16H11.94V50.4H5.28V26.16ZM32.88 0.359998H40.2C39.66 25.44 43.5 49.38 48.66 49.38C49.86 49.38 50.52 46.02 50.76 38.46C52.32 40.02 54.84 41.7 56.7 42.42C55.68 53.7 53.4 56.46 48 56.46C35.94 56.46 32.94 28.26 32.88 0.359998ZM64.56 46.5H112.74V53.7H64.56V46.5ZM61.26 18.06H115.92V25.2H61.26V18.06ZM84.48 0.179996H92.22V51.54H84.48V0.179996ZM137.22 6.6H175.68V12.42H137.22V6.6ZM152.22 9.42L160.5 9.9C159.3 13.14 157.68 16.38 156.54 18.54L150.72 17.52C151.32 15.12 151.98 11.76 152.22 9.42ZM162.36 -1.43051e-06L169.62 1.56C167.94 4.2 166.32 6.72 165 8.46L159 6.96C160.14 4.98 161.64 2.04 162.36 -1.43051e-06ZM142.8 2.22L148.44 0.119997C150.12 1.92 151.8 4.5 152.4 6.3L146.46 8.64C145.92 6.9 144.36 4.14 142.8 2.22ZM135.12 23.46V45.54H128.1V30.12H121.08V23.46H135.12ZM135.12 42.42C137.52 46.38 142.08 48.12 148.32 48.36C155.34 48.66 168.96 48.48 177.06 47.82C176.28 49.5 175.08 52.98 174.78 55.14C167.52 55.5 155.4 55.62 148.2 55.32C140.82 55.02 135.84 53.28 131.94 48.6C129.3 50.94 126.6 53.22 123.36 55.86L119.82 48.36C122.52 46.68 125.76 44.58 128.52 42.42H135.12ZM121.2 5.76L126.54 1.44C130.14 3.96 134.52 7.74 136.62 10.56L130.86 15.3C129.06 12.48 124.74 8.46 121.2 5.76ZM148.08 28.74V31.86H164.46V28.74H148.08ZM148.08 36.66V39.84H164.46V36.66H148.08ZM148.08 20.82V23.94H164.46V20.82H148.08ZM141.3 15.6H171.54V45.06H141.3V15.6Z" fill="#DF1A10"/>
</svg>
