<svg width="25" height="47" viewBox="0 0 25 47" fill="none" xmlns="http://www.w3.org/2000/svg">
<path d="M23.6016 46.1121C21.6197 31.6761 23.6025 7.11749 24.9973 0.192091C23.9711 0.137906 19.3131 29.8878 19.1551 32.8791C18.5417 33.627 20.5766 5.95785 20.7872 1.96952C20.5766 5.95785 14.8398 36.6507 14.6818 39.6419C14.0458 40.46 14.0712 8.95078 14.5324 2.56784L14.6302 1.6444C14.1873 2.23397 13.4533 10.8976 12.6982 19.8913L10.5245 40.4223C9.7166 41.6481 7.99922 10.293 8.15717 7.30179C7.46453 8.43844 5.11769 37.888 4.42004 39.1001L-0.000578346 44.8658L23.6016 46.1121Z" fill="#C3703E"/>
</svg>
