<svg width="58" height="80" viewBox="0 0 58 80" fill="none" xmlns="http://www.w3.org/2000/svg">
<path d="M17.9761 79.7902C16.6582 54.3106 5.44661 12.609 0.88524 1.10596C2.58689 0.697432 19.9478 50.5212 21.1734 55.6262C22.4413 56.7262 10.143 9.68172 8.50889 2.87513C10.143 9.68172 29.6141 60.7986 30.8397 65.9036C32.168 67.1176 22.0024 12.84 19.1792 1.98485L18.7188 0.423938C19.65 1.30367 23.663 16.0043 27.8173 31.2671L38.0548 65.9711C39.802 67.8349 32.6054 13.2876 31.3798 8.18263C32.9053 9.92817 46.298 59.9442 47.8562 61.8183C49.2675 63.5157 41.9307 14.6482 42.0658 0.217963C42.8153 10.8364 57.1139 70.394 57.1139 70.394L17.9761 79.7902Z" fill="#C3703E"/>
</svg>
