<svg width="10" height="86" viewBox="0 0 10 86" fill="none" xmlns="http://www.w3.org/2000/svg">
<g clip-path="url(#clip0_24_213)">
<path d="M7.87646 2.07422C7.90932 1.75144 7.94516 1.43146 7.97802 1.10868C8.04074 0.516449 7.54791 0 6.91171 0H5.25101C4.69247 0 4.22951 0.401371 4.18471 0.92624C4.16081 1.1985 4.13393 1.53251 4.10107 1.91704C4.8896 1.8188 6.22772 1.75144 7.87646 2.07422Z" fill="#DB8D45"/>
<path d="M8.27361 86C8.27361 86 4.40563 60.1523 6.32617 23.2935H3.06751C1.9116 46.225 1.49045 79.6651 8.27659 86H8.27361Z" fill="#DB8D45"/>
<path d="M7.87634 2.04051C6.22759 1.71773 4.88649 1.78509 4.10095 1.88333C3.8172 5.27674 3.2258 12.8859 2.72998 22.328H6.25447C6.61588 15.8471 7.14157 9.0631 7.87932 2.04051H7.87634Z" fill="#DB8D45"/>
<path d="M4.15751 23.4479H2.65213C1.6366 44.2266 1.28117 72.9962 6.2274 82.8087C1.40064 61.1431 4.15751 23.4479 4.15751 23.4479Z" fill="#DB8D45"/>
<path d="M10 22.1259H0V23.5742H10V22.1259Z" fill="#DB8D45"/>
<path d="M5.56477 19.0736L4.93327 18.4802C4.83529 18.3881 4.67643 18.3881 4.57845 18.4802L3.94695 19.0736C3.84897 19.1657 3.84897 19.315 3.94695 19.407L4.57845 20.0005C4.67643 20.0925 4.83529 20.0925 4.93327 20.0005L5.56477 19.407C5.66275 19.315 5.66275 19.1657 5.56477 19.0736Z" fill="#DB8D45"/>
<path d="M5.69807 16.4229L5.06657 15.8295C4.96859 15.7374 4.80973 15.7374 4.71175 15.8295L4.08025 16.4229C3.98227 16.515 3.98227 16.6643 4.08025 16.7563L4.71175 17.3498C4.80973 17.4418 4.96859 17.4418 5.06657 17.3498L5.69807 16.7564C5.79605 16.6643 5.79605 16.515 5.69807 16.4229Z" fill="#DB8D45"/>
<path d="M5.89484 13.7729L5.26335 13.1795C5.16537 13.0874 5.00651 13.0874 4.90853 13.1795L4.27703 13.7729C4.17905 13.865 4.17905 14.0143 4.27703 14.1063L4.90853 14.6998C5.00651 14.7918 5.16537 14.7918 5.26335 14.6998L5.89484 14.1063C5.99283 14.0143 5.99283 13.865 5.89484 13.7729Z" fill="#DB8D45"/>
<path d="M6.09699 11.3706L5.4655 10.7771C5.36752 10.6851 5.20866 10.6851 5.11068 10.7771L4.47918 11.3706C4.3812 11.4626 4.3812 11.6119 4.47918 11.704L5.11068 12.2974C5.20866 12.3895 5.36752 12.3895 5.4655 12.2974L6.09699 11.704C6.19497 11.6119 6.19497 11.4626 6.09699 11.3706Z" fill="#DB8D45"/>
<path d="M6.32648 8.72077L5.69499 8.12735C5.59701 8.03527 5.43815 8.03527 5.34017 8.12735L4.70867 8.72077C4.61069 8.81285 4.61069 8.96213 4.70867 9.0542L5.34017 9.64763C5.43815 9.7397 5.59701 9.7397 5.69499 9.64763L6.32648 9.0542C6.42447 8.96213 6.42447 8.81285 6.32648 8.72077Z" fill="#DB8D45"/>
<path d="M6.50822 6.39768L5.9445 5.74677C5.85704 5.64578 5.69901 5.63053 5.59154 5.71273L4.89887 6.24246C4.79139 6.32465 4.77517 6.47316 4.86264 6.57415L5.42636 7.22506C5.51383 7.32605 5.67185 7.3413 5.77933 7.2591L6.472 6.72937C6.57947 6.64718 6.59569 6.49867 6.50822 6.39768Z" fill="#DB8D45"/>
<path d="M6.87053 3.87198L6.30681 3.22107C6.21934 3.12008 6.06131 3.10484 5.95384 3.18703L5.26117 3.71677C5.1537 3.79896 5.13748 3.94746 5.22494 4.04845L5.78867 4.69937C5.87613 4.80036 6.03416 4.8156 6.14163 4.73341L6.8343 4.20367C6.94178 4.12148 6.95799 3.97298 6.87053 3.87198Z" fill="#DB8D45"/>
</g>
<defs>
<clipPath id="clip0_24_213">
<rect width="10" height="86" fill="white"/>
</clipPath>
</defs>
</svg>
