<svg width="7" height="54" viewBox="0 0 7 54" fill="none" xmlns="http://www.w3.org/2000/svg">
<g clip-path="url(#clip0_24_226)">
<path d="M5.51338 1.30242C5.53638 1.09974 5.56147 0.898825 5.58446 0.696149C5.62837 0.324282 5.28339 0 4.83805 0H3.67556C3.28458 0 2.96051 0.252023 2.92915 0.581593C2.91242 0.752546 2.8936 0.962272 2.87061 1.20372C3.42258 1.14204 4.35926 1.09974 5.51338 1.30242Z" fill="#DB8D45"/>
<path d="M5.79143 54C5.79143 54 3.08384 37.77 4.42822 14.6262H2.14716C1.33802 29.025 1.04322 50.0222 5.79352 54H5.79143Z" fill="#DB8D45"/>
<path d="M5.51358 1.28124C4.35946 1.07856 3.42069 1.12086 2.87081 1.18254C2.67218 3.31329 2.25821 8.09116 1.91113 14.0199H4.37828C4.63126 9.95049 4.99924 5.69077 5.51567 1.28124H5.51358Z" fill="#DB8D45"/>
<path d="M2.91055 14.7231H1.85679C1.14591 27.7701 0.89711 45.8348 4.35948 51.9961C0.980742 38.3921 2.91055 14.7231 2.91055 14.7231Z" fill="#DB8D45"/>
<path d="M7 13.893H0V14.8024H7V13.893Z" fill="#DB8D45"/>
<path d="M3.89534 11.9764L3.45329 11.6038C3.3847 11.546 3.2735 11.546 3.20491 11.6038L2.76287 11.9764C2.69428 12.0343 2.69428 12.128 2.76287 12.1858L3.20491 12.5584C3.2735 12.6162 3.3847 12.6162 3.45329 12.5584L3.89534 12.1858C3.96392 12.128 3.96392 12.0343 3.89534 11.9764Z" fill="#DB8D45"/>
<path d="M3.9886 10.3121L3.54655 9.93946C3.47796 9.88165 3.36676 9.88165 3.29818 9.93946L2.85613 10.3121C2.78754 10.3699 2.78754 10.4636 2.85613 10.5214L3.29818 10.8941C3.36676 10.9519 3.47796 10.9519 3.54655 10.8941L3.9886 10.5214C4.05718 10.4636 4.05718 10.3699 3.9886 10.3121Z" fill="#DB8D45"/>
<path d="M4.12629 8.64813L3.68425 8.27552C3.61566 8.2177 3.50446 8.2177 3.43587 8.27552L2.99382 8.64813C2.92524 8.70595 2.92524 8.79968 2.99382 8.8575L3.43587 9.23011C3.50446 9.28793 3.61566 9.28793 3.68425 9.23011L4.12629 8.8575C4.19488 8.79968 4.19488 8.70595 4.12629 8.64813Z" fill="#DB8D45"/>
<path d="M4.26789 7.13965L3.82585 6.76703C3.75726 6.70922 3.64606 6.70922 3.57747 6.76703L3.13543 7.13965C3.06684 7.19746 3.06684 7.2912 3.13543 7.34901L3.57747 7.72163C3.64606 7.77944 3.75726 7.77944 3.82585 7.72163L4.26789 7.34901C4.33648 7.2912 4.33648 7.19746 4.26789 7.13965Z" fill="#DB8D45"/>
<path d="M4.42854 5.47583L3.98649 5.10322C3.91791 5.0454 3.8067 5.0454 3.73812 5.10322L3.29607 5.47583C3.22748 5.53365 3.22748 5.62738 3.29607 5.6852L3.73812 6.05781C3.8067 6.11562 3.91791 6.11562 3.98649 6.05781L4.42854 5.6852C4.49713 5.62738 4.49713 5.53365 4.42854 5.47583Z" fill="#DB8D45"/>
<path d="M4.55576 4.01713L4.16115 3.60841C4.09993 3.545 3.98931 3.53543 3.91408 3.58704L3.42921 3.91966C3.35398 3.97127 3.34262 4.06452 3.40385 4.12793L3.79845 4.53664C3.85968 4.60006 3.9703 4.60963 4.04553 4.55802L4.5304 4.22539C4.60563 4.17378 4.61698 4.08054 4.55576 4.01713Z" fill="#DB8D45"/>
<path d="M4.80918 2.43125L4.41457 2.02254C4.35334 1.95912 4.24272 1.94955 4.16749 2.00116L3.68262 2.33379C3.60739 2.3854 3.59604 2.47864 3.65727 2.54206L4.05187 2.95077C4.1131 3.01418 4.22372 3.02375 4.29895 2.97214L4.78382 2.63952C4.85905 2.58791 4.8704 2.49466 4.80918 2.43125Z" fill="#DB8D45"/>
</g>
<defs>
<clipPath id="clip0_24_226">
<rect width="7" height="54" fill="white"/>
</clipPath>
</defs>
</svg>
