<svg width="1440" height="589" viewBox="0 0 1440 589" fill="none" xmlns="http://www.w3.org/2000/svg">
<path d="M1546 1.15607C1448.78 70.6096 1183.16 36.5419 887.501 44.0234C517.922 53.3754 345.677 9.49643 220.5 1.15607C91.3702 -7.4477 8.68738 35.9452 -62 1.15607C-62 1.15607 -120.975 79.9927 -151.5 232.5C-153.443 242.206 148 230.5 148 248C141 277.5 -156.665 278.085 -158 287C-160.063 300.775 70.5 299 65 316C47.5 328 -163.002 343.341 -163.5 351.5C-164.24 363.615 -169.301 457.821 -169.157 469C-167.669 584.339 -115.896 643.71 53 520C473.5 212 1546 469.5 1546 469.5V305.5C1546 305.5 1270 300 1275 292C1280 284 1440 267.5 1429.5 253.5C1419 239.5 985.963 237.5 991.001 223C996.038 208.5 1546 167.5 1546 167.5V1.15607Z" fill="#B35F30"/>
</svg>
