<svg width="399" height="552" viewBox="0 0 399 552" fill="none" xmlns="http://www.w3.org/2000/svg">
<path d="M6.55632 543.693C6.55632 543.693 -0.999336 479.5 1.00033 475.5C2.99999 471.5 5.95918 457.249 8.5 455C11.2526 452.581 16.4066 446.35 15.1356 444.057C14.1187 442.265 12.7631 440.434 12.5086 438.508C12.2965 436.959 13.1856 434.895 14.2865 433.667C14.9641 432.947 17.3782 432.837 18.3101 433.457C23.012 436.51 27.5445 439.942 32.1617 443.248C29.8751 446.123 27.6308 448.579 25.8525 451.323C23.9894 454.194 26.8281 459.322 29.1573 457.955C34.3663 454.923 39.3222 457.47 44.3198 456.788C45.4634 456.65 47.4536 454.407 47.2417 453.822C46.6485 452.235 45.2928 450.404 43.8103 449.875C42.2855 449.346 40.2526 450.248 38.135 450.564L38.1334 442.136C41.4797 443.945 43.7671 445.221 46.0968 446.454C47.4099 447.111 48.723 448.062 50.0784 448.215C53.5515 448.556 57.0668 448.351 60.4976 448.734C62.2341 448.925 63.8861 449.956 65.5804 450.609C65.4534 451.113 65.2841 451.618 65.1571 452.123C62.6582 452.149 59.863 452.85 57.6605 452.076C53.1706 450.447 51.1804 452.397 49.1907 457.491C53.4263 458.621 57.3655 460.172 61.4316 460.716C65.8789 461.298 70.4531 461.166 74.9425 460.783C76.2555 460.685 78.2034 458.861 78.542 457.516C80.1079 450.832 81.2501 444.069 82.6041 436.885C74.3449 435.714 66.0856 434.586 57.8264 433.415C51.1343 432.508 47.4205 428.661 46.6851 421.876C46.6851 421.583 46.9392 421.287 47.1085 420.908C51.5555 420.148 56.1721 419.931 60.4496 418.544C79.3806 412.263 98.1846 405.732 116.946 398.992C118.386 398.474 119.826 395.817 119.995 394.012C120.586 387.8 120.374 381.555 121.008 375.342C121.43 371.312 120.498 369.435 116.178 368.768C108.427 367.634 100.803 365.744 93.0944 364.442C87.7576 363.534 88.2227 359.043 87.5867 355.653C86.866 351.677 90.5933 352.854 92.711 352.412C105.205 349.638 118.038 347.405 126.506 336.33C132.689 328.255 140.184 321.089 141.41 309.923C141.96 305.179 145.771 300.735 148.607 295.212C147.762 305.495 147.89 306.29 157.081 309.295C167.967 312.87 179.106 315.687 190.203 318.672C192.321 319.237 195.117 320.004 196.641 319.107C198.208 318.168 198.631 315.313 199.563 313.248C199.139 313.462 198.716 313.676 198.335 313.89C202.486 320.765 205.537 328.741 211.087 334.217C219.136 342.141 228.963 348.285 238.24 354.937C239.553 355.888 242.306 355.859 243.957 355.212C254.206 351.12 264.243 346.611 274.492 342.477C277.626 341.228 278.897 339.243 278.896 336.182C278.895 328.928 278.893 321.674 278.892 314.169C269.658 311.122 260.34 307.824 250.852 304.989C244.032 302.923 241.957 300.513 242.04 293.384C242.039 290.616 243.098 289.305 245.936 288.94C264.317 286.607 281.596 280.427 298.621 273.37C308.574 269.281 308.616 269.323 308.826 258.712C308.826 258.418 309.165 258.121 309.165 258.121C312.256 257.25 315.433 257.007 317.847 255.513C319.752 254.361 321.785 251.782 321.869 249.768C321.953 247.713 320.174 244.503 318.395 243.725C306.196 238.403 293.743 233.629 281.417 228.518C280.316 228.069 279.003 226.909 278.706 225.863C277.901 223.063 277.519 220.131 277.137 217.242C276.798 214.688 277.984 213.627 280.694 213.347C285.523 212.834 290.52 212.404 295.094 210.846C305.47 207.214 315.592 202.746 325.926 198.904C329.144 197.696 329.822 195.928 330.033 192.739C330.582 184.347 331.851 175.947 332.442 167.555C332.569 165.918 331.34 163.457 329.942 162.633C323.758 158.841 317.362 155.303 310.881 152.017C305.502 149.307 302.197 143.178 304.06 137.497C304.44 136.319 306.388 134.831 307.617 134.86C325.363 134.84 339.974 126.424 353.821 116.759C359.369 112.885 364.62 107.378 367.584 101.476C371.775 93.1293 373.637 83.6751 376.6 74.7123C377.277 72.6505 378.421 70.6676 379.31 68.6875C379.86 70.0234 379.734 71.1569 379.564 72.2909C377.914 81.8267 380.244 84.3598 389.816 82.078C402.903 78.9622 415.947 75.4276 428.864 71.6007C438.224 68.818 447.626 65.7412 456.562 61.8727C465.667 57.9186 467.318 53.4983 465.199 44.1282C465.029 43.3752 464.944 42.5794 464.817 41.7841C465.368 41.5267 465.876 41.2277 466.427 40.9703C467.486 42.9299 468.926 44.7177 469.562 46.8075C470.664 50.36 470.876 54.2573 472.232 57.7232C477.444 70.9602 482.19 84.3698 482.447 98.7495C482.875 122.646 482.837 146.589 482.842 170.49C482.854 238.46 482.825 306.431 482.795 374.36C482.805 427.403 482.73 480.447 482.867 533.53C482.868 538.059 481.386 540.003 476.854 539.506C475.626 539.393 474.398 539.532 473.169 539.545C354.028 540.807 234.929 542.153 115.787 543.332C79.4052 543.717 43.0231 543.642 6.6834 543.775L6.55632 543.693ZM19.7113 452.353C17.6364 454.387 16.3236 455.743 14.9686 457.057C15.8581 457.845 17.1714 459.508 17.5526 459.294C19.2466 458.48 20.7287 457.206 22.0415 455.85C22.2108 455.681 20.8976 454.101 19.7113 452.353Z" fill="#DB8D45"/>
</svg>
