<?xml version="1.0" encoding="utf-8"?>
<!-- Generator: Adobe Illustrator 27.5.0, SVG Export Plug-In . SVG Version: 6.00 Build 0)  -->
<svg version="1.1" id="Calque_1" xmlns="http://www.w3.org/2000/svg" xmlns:xlink="http://www.w3.org/1999/xlink" x="0px" y="0px"
	 viewBox="0 0 198 163" style="enable-background:new 0 0 198 163;" xml:space="preserve">
<style type="text/css">
	.st0{clip-path:url(#SVGID_00000005978592509689817710000007015488557329397643_);}
	.st1{fill:#DB8D45;}
</style>
<g>
	<defs>
		<rect id="SVGID_1_" y="0" width="197.6" height="162.2"/>
	</defs>
	<clipPath id="SVGID_00000169548465106431078410000011955182777908258748_">
		<use xlink:href="#SVGID_1_"  style="overflow:visible;"/>
	</clipPath>
	<g style="clip-path:url(#SVGID_00000169548465106431078410000011955182777908258748_);">
		<path class="st1" d="M66.5,40.8v-5.1h-5.6v-8.1H46.3v8.1h-5.6v5.1h5.6V149c-2.2,2.7-3.5,6.3-3.5,10.1v3.1h21.5v-3.1
			c0-3.7-1.2-7.3-3.5-10.1h0V40.8H66.5z"/>
		<path class="st1" d="M197.5,0c-10.6,5.1-32,6.8-57.6,6.8H57.6C32,6.8,10.6,5.1,0,0c0,0-1.4,18.4,17.4,18.4h0
			c3.1,7.8,10.6,9.2,20.4,9.2h121.9c9.9,0,17.4-1.4,20.4-9.2h0C198.9,18.4,197.5,0,197.5,0z"/>
		<polygon class="st1" points="20.8,40.7 20.8,44.6 23.3,44.6 23.3,54.6 172.4,54.6 172.4,44.6 174.9,44.6 174.9,40.7 		"/>
		<path class="st1" d="M156.9,40.8v-5.1h-5.6v-8.1h-14.5v8.1h-5.6v5.1h5.6V149c-2.2,2.7-3.5,6.3-3.5,10.1v3.1h21.5v-3.1
			c0-3.7-1.2-7.3-3.5-10.1V40.8H156.9z"/>
	</g>
</g>
</svg>
