<svg width="198" height="163" viewBox="0 0 198 163" fill="none" xmlns="http://www.w3.org/2000/svg">
<g clip-path="url(#clip0_24_200)">
<path d="M60.8098 27.59H46.3198V35.66H60.8098V27.59Z" fill="#DB8D45"/>
<path d="M60.8098 54.71H46.3198V150.57H60.8098V54.71Z" fill="#DB8D45"/>
<path d="M66.4502 35.65H40.7002V40.77H66.4502V35.65Z" fill="#DB8D45"/>
<path d="M46.3201 150.56C44.0801 152.98 42.8301 156.16 42.8301 159.46V162.23H64.3001V159.46C64.3001 156.16 63.0501 152.98 60.8101 150.56H46.3201Z" fill="#DB8D45"/>
<path d="M197.55 0C186.99 5.11 165.54 6.81 139.99 6.81H57.5799C32.0299 6.81 10.5799 5.11 0.0199155 0C0.0199155 0 -1.34008 18.39 17.3899 18.39H180.18C198.91 18.39 197.55 0 197.55 0Z" fill="#DB8D45"/>
<path d="M17.3901 18.39C20.4501 26.22 27.9501 27.59 37.8201 27.59H159.74C169.62 27.59 177.11 26.23 180.17 18.39H17.3901Z" fill="#DB8D45"/>
<path d="M151.24 27.59H136.75V35.66H151.24V27.59Z" fill="#DB8D45"/>
<path d="M151.24 54.71H136.75V150.57H151.24V54.71Z" fill="#DB8D45"/>
<path d="M156.88 35.65H131.13V40.77H156.88V35.65Z" fill="#DB8D45"/>
<path d="M175.85 40.77H21.7202V44.64H175.85V40.77Z" fill="#DB8D45"/>
<path d="M173.33 44.64H24.25V54.7H173.33V44.64Z" fill="#DB8D45"/>
<path d="M133.26 159.46V162.23H154.73V159.46C154.73 156.16 153.48 152.98 151.24 150.56H136.75C134.51 152.98 133.26 156.16 133.26 159.46Z" fill="#DB8D45"/>
</g>
<defs>
<clipPath id="clip0_24_200">
<rect width="197.57" height="162.23" fill="white"/>
</clipPath>
</defs>
</svg>
