<svg width="635" height="635" viewBox="0 0 635 635" fill="none" xmlns="http://www.w3.org/2000/svg">
<path d="M317.5 309.5C317.5 321.5 635.334 322.345 634.038 334C616.388 492.641 480.85 635 317.5 635C142.15 635 0 492.85 0 317.5C0 298.392 1.68795 279.678 4.92286 261.5C6.30522 253.732 506.564 253.062 508.5 245.5C510.759 236.68 14.7931 221.007 17.7731 212.5C37.4052 156.456 72.3115 107.591 117.5 70.8975C126.29 63.7599 410.969 65.1798 420.5 59C431.392 51.9382 167.243 37.4287 179 31.7204C220.855 11.398 267.847 0 317.5 0C429.25 0 527.515 57.7332 584.097 145C586.231 148.292 519.986 155.126 522 158.5C524.258 162.283 582.896 158.5 587.5 167C593.729 178.5 442.246 181.065 445 187C445 200 605.786 184 609.232 192C621.35 220.131 629.518 250.364 633.038 282C634.334 293.655 317.5 297.5 317.5 309.5Z" fill="#FFF4CC"/>
</svg>
